<svg xmlns="http://www.w3.org/2000/svg" viewBox="0 0 136.13 21.57">
  <defs>
    <style>
      .cls-1 {
        fill: #fff;
      }

      .cls-2 {
        fill: #f9ca24;
      }
    </style>
  </defs>
  <title>remonic-text</title>
  <g id="Layer_2" data-name="Layer 2">
    <g id="Layer_1-2" data-name="Layer 1">
      <g>
        <path class="cls-1" d="M39.55,12.22h-6.9v8.52h-.74V.83h6.34A7,7,0,0,1,43,2.38a5.28,5.28,0,0,1,1.77,4.19,5.46,5.46,0,0,1-1.27,3.57A5.37,5.37,0,0,1,40.3,12l5.32,8.52v.19h-.78Zm-6.9-.74h6.27a5,5,0,0,0,3.71-1.39,4.71,4.71,0,0,0,1.42-3.52,4.55,4.55,0,0,0-1.57-3.66A6.38,6.38,0,0,0,38.2,1.57H32.65Z"/>
        <path class="cls-1" d="M55.23,21a6,6,0,0,1-3.29-1A6.55,6.55,0,0,1,49.6,17.4a8.09,8.09,0,0,1-.85-3.73v-.61a8.53,8.53,0,0,1,.82-3.76,6.53,6.53,0,0,1,2.26-2.67,5.5,5.5,0,0,1,3.13-1,5.14,5.14,0,0,1,4,1.77,6.68,6.68,0,0,1,1.58,4.63v.78H49.49v.81A7.34,7.34,0,0,0,50.25,17a5.86,5.86,0,0,0,2.09,2.41,5.18,5.18,0,0,0,2.89.87,5.93,5.93,0,0,0,2.54-.49,5.21,5.21,0,0,0,1.85-1.53l.52.37A5.56,5.56,0,0,1,55.23,21ZM55,6.41A4.86,4.86,0,0,0,51.29,8a6.82,6.82,0,0,0-1.76,4.09H59.84v-.18a6.15,6.15,0,0,0-.64-2.79,4.84,4.84,0,0,0-1.75-2A4.48,4.48,0,0,0,55,6.41Z"/>
        <path class="cls-1" d="M74.6,20.74h-.73V10.81a4.92,4.92,0,0,0-1-3.31,3.89,3.89,0,0,0-3.07-1.09,4.72,4.72,0,0,0-4,2.15,7.13,7.13,0,0,0-1.22,2.84v9.34h-.75V6h.75v3.5a6.18,6.18,0,0,1,2.15-2.79,5.65,5.65,0,0,1,6.13-.17,4,4,0,0,1,1.55,2.68,5.47,5.47,0,0,1,2.14-2.55,6,6,0,0,1,3.31-1A4.44,4.44,0,0,1,83.46,7a6.11,6.11,0,0,1,1.18,4.06v9.65H83.9V11.15a5.55,5.55,0,0,0-1-3.6,3.7,3.7,0,0,0-3.07-1.14,5.14,5.14,0,0,0-4.26,2.15,4.6,4.6,0,0,0-1,2.34Z"/>
        <path class="cls-1" d="M88,13.06a8.53,8.53,0,0,1,.82-3.81,6.11,6.11,0,0,1,5.65-3.58,6.09,6.09,0,0,1,5.64,3.52A8.6,8.6,0,0,1,101,13v.66a8.66,8.66,0,0,1-.81,3.81A6.08,6.08,0,0,1,94.5,21a6.12,6.12,0,0,1-5.66-3.53A8.56,8.56,0,0,1,88,13.71Zm.74.57A7.71,7.71,0,0,0,89.47,17a5.74,5.74,0,0,0,2,2.4,5.27,5.27,0,0,0,3,.86,5.12,5.12,0,0,0,4.12-1.9,7.34,7.34,0,0,0,1.59-4.89v-.42a7.6,7.6,0,0,0-.74-3.37,5.83,5.83,0,0,0-2-2.41,5.22,5.22,0,0,0-3-.87,5.11,5.11,0,0,0-4.13,1.93,7.31,7.31,0,0,0-1.6,4.85Z"/>
        <path class="cls-1" d="M105.27,9.39a6.17,6.17,0,0,1,2.13-2.72,5.32,5.32,0,0,1,3.12-1A4.38,4.38,0,0,1,114.05,7a6.17,6.17,0,0,1,1.17,4.07v9.65h-.74V11.07a5.38,5.38,0,0,0-1-3.52,3.73,3.73,0,0,0-3-1.14,4.6,4.6,0,0,0-3.32,1.36,6.94,6.94,0,0,0-1.89,3.5v9.47h-.74V6h.74Z"/>
        <path class="cls-1" d="M119.65,1.32a.81.81,0,0,1,.22-.54.71.71,0,0,1,.53-.22.73.73,0,0,1,.54.22.73.73,0,0,1,.23.54.7.7,0,0,1-.23.54.77.77,0,0,1-.54.22.75.75,0,0,1-.53-.22A.77.77,0,0,1,119.65,1.32Zm1.12,19.42H120V6h.73Z"/>
        <path class="cls-1" d="M130.65,20.27A5.07,5.07,0,0,0,134,19.21a4,4,0,0,0,1.43-3h.74a4.66,4.66,0,0,1-1.66,3.46,5.71,5.71,0,0,1-3.82,1.3,5.36,5.36,0,0,1-4.41-2,8.39,8.39,0,0,1-1.64-5.45v-.49a8.27,8.27,0,0,1,1.64-5.38,5.34,5.34,0,0,1,4.38-2,5.5,5.5,0,0,1,3.88,1.41,5.19,5.19,0,0,1,1.63,3.75h-.74A4.48,4.48,0,0,0,134,7.62a4.76,4.76,0,0,0-3.37-1.21,4.69,4.69,0,0,0-3.88,1.78,7.89,7.89,0,0,0-1.4,5v.48a7.55,7.55,0,0,0,1.42,4.87A4.7,4.7,0,0,0,130.65,20.27Z"/>
      </g>
      <path class="cls-2" d="M9.34,0,0,5.39V16.18l9.34,5.39,9.34-5.39V5.39Zm3.94,16.17H11.74L9.39,11.78H6.84v4.39H5.4V10.61H9a2.46,2.46,0,0,0,1.69-.55,1.87,1.87,0,0,0,.63-1.48A2,2,0,0,0,10.76,7,2.54,2.54,0,0,0,9,6.49H5.4V5.32H9a4.2,4.2,0,0,1,2.82.84,3,3,0,0,1,1,2.43,2.88,2.88,0,0,1-.55,1.76,3.2,3.2,0,0,1-1.52,1.13l2.55,4.6Z"/>
    </g>
  </g>
</svg>
